<svg xmlns="http://www.w3.org/2000/svg" viewbox="0 0 423 369" width="423" height="369"><g fill="none"><path d="m225.233 70.6-51.9 297.4h-45.6l51.897-297.4zm82-70-51.9 297.4h-45.6l51.897-297.4h45.603z" fill="#ef0"/><path d="m422.2 174c0 3.8-.25 8.1-.75 12.9s-1.25 9.6-2.25 14.4l-16.5 95.7h-43.8l16.8-95.7c.4-1.8.7-3.65.9-5.55s.3-3.75.3-5.55c0-4.2-.85-7.8-2.55-10.8s-4.95-4.5-9.75-4.5c-6 0-11.15 2.85-15.45 8.55s-7.25 13.05-8.85 22.05l-15.9 91.5h-43.8l20.7-117.9 1.5-9.15c.6-3.7 1.15-7.4 1.65-11.1.444-3.289.889-6.38 1.333-9.274l.478-3.106c.337-2.247.583-4.07.739-5.47h41.4l-.204 1.463c-.278 2.033-.578 4.4-.9 7.1l-.246 2.087c-.5 4.3-1.05 8.35-1.65 12.15h.6c4-7.8 9.5-14.35 16.5-19.65s15.3-7.95 24.9-7.95c6.2 0 11.55 1.15 16.05 3.45s8.1 5.25 10.8 8.85 4.7 7.65 6 12.15 1.95 8.95 1.95 13.35zm-267.1-103.8-39.6 226.8h-41.7l3.3-20.1h-.3c-3.6 7-8.2 12.9-13.8 17.7s-13.1 7.2-22.5 7.2c-6.8 0-12.75-1.4-17.85-4.2s-9.3-6.65-12.6-11.55-5.8-10.8-7.5-17.7c-1.7-6.9-2.55-14.45-2.55-22.65 0-12.2 1.45-24.75 4.35-37.65s7.2-24.7 12.9-35.4 12.65-19.45 20.85-26.25 17.7-10.2 28.5-10.2c9 0 15.8 2.05 20.4 6.15s7.5 9.45 8.7 16.05h.9l15.6-88.2zm-80.7 103.5c-5.2 0-9.7 2.2-13.5 6.6s-7 9.85-9.6 16.35-4.55 13.5-5.85 21-1.95 14.35-1.95 20.55c0 7.6 1.25 13.8 3.75 18.6s6.65 7.2 12.45 7.2c4.8 0 9.1-2.15 12.9-6.45s7-9.65 9.6-16.05 4.6-13.3 6-20.7 2.1-14.1 2.1-20.1c0-8-1.25-14.5-3.75-19.5s-6.55-7.5-12.15-7.5z" fill="#fff"/></g></svg>
