<svg viewbox="0 0 423 369" xmlns="http://www.w3.org/2000/svg">
  <g fill-rule="nonzero" fill="none">
    <path d="M225.233 70.6l-51.9 297.4h-45.6L179.63 70.6h45.603zm82-70l-51.9 297.4h-45.6L261.63.6h45.603z" class="accent" />
    <path d="M422.2 174c0 3.8-.25 8.1-.75 12.9-.5 4.8-1.25 9.6-2.25 14.4L402.7 297h-43.8l16.8-95.7c.4-1.8.7-3.65.9-5.55.2-1.9.3-3.75.3-5.55 0-4.2-.85-7.8-2.55-10.8-1.7-3-4.95-4.5-9.75-4.5-6 0-11.15 2.85-15.45 8.55-4.3 5.7-7.25 13.05-8.85 22.05L324.4 297h-43.8l20.7-117.9 1.5-9.15c.6-3.7 1.15-7.4 1.65-11.1.444-3.289.889-6.38 1.333-9.274l.478-3.106c.337-2.247.583-4.07.739-5.47h41.4l-.204 1.463c-.278 2.033-.578 4.4-.9 7.1l-.246 2.087c-.5 4.3-1.05 8.35-1.65 12.15h.6c4-7.8 9.5-14.35 16.5-19.65 7-5.3 15.3-7.95 24.9-7.95 6.2 0 11.55 1.15 16.05 3.45 4.5 2.3 8.1 5.25 10.8 8.85 2.7 3.6 4.7 7.65 6 12.15 1.3 4.5 1.95 8.95 1.95 13.35zM155.1 70.2L115.5 297H73.8l3.3-20.1h-.3c-3.6 7-8.2 12.9-13.8 17.7-5.6 4.8-13.1 7.2-22.5 7.2-6.8 0-12.75-1.4-17.85-4.2-5.1-2.8-9.3-6.65-12.6-11.55-3.3-4.9-5.8-10.8-7.5-17.7C.85 261.45 0 253.9 0 245.7c0-12.2 1.45-24.75 4.35-37.65 2.9-12.9 7.2-24.7 12.9-35.4S29.9 153.2 38.1 146.4c8.2-6.8 17.7-10.2 28.5-10.2 9 0 15.8 2.05 20.4 6.15 4.6 4.1 7.5 9.45 8.7 16.05h.9l15.6-88.2h42.9zM74.4 173.7c-5.2 0-9.7 2.2-13.5 6.6-3.8 4.4-7 9.85-9.6 16.35-2.6 6.5-4.55 13.5-5.85 21-1.3 7.5-1.95 14.35-1.95 20.55 0 7.6 1.25 13.8 3.75 18.6 2.5 4.8 6.65 7.2 12.45 7.2 4.8 0 9.1-2.15 12.9-6.45 3.8-4.3 7-9.65 9.6-16.05 2.6-6.4 4.6-13.3 6-20.7 1.4-7.4 2.1-14.1 2.1-20.1 0-8-1.25-14.5-3.75-19.5s-6.55-7.5-12.15-7.5z" class="color" />
  </g>
</svg>
