<?xml version="1.0" standalone="no"?>
<!DOCTYPE svg PUBLIC "-//W3C//DTD SVG 20010904//EN"
 "http://www.w3.org/TR/2001/REC-SVG-20010904/DTD/svg10.dtd">
<svg version="1.0" xmlns="http://www.w3.org/2000/svg"
 width="956.000000pt" height="956.000000pt" viewBox="0 0 956.000000 956.000000"
 preserveAspectRatio="xMidYMid meet">
<metadata>
Created by potrace 1.11, written by Peter Selinger 2001-2013
</metadata>
<g transform="translate(0.000000,956.000000) scale(0.100000,-0.100000)"
fill="#000000" stroke="none">
<path d="M0 4780 l0 -4780 4780 0 4780 0 0 4780 0 4780 -4780 0 -4780 0 0
-4780z m6445 3618 c-3 -13 -234 -1341 -515 -2953 -280 -1612 -512 -2940 -515
-2952 l-5 -23 -456 0 -456 0 6 27 c3 16 236 1349 516 2963 281 1614 513 2941
515 2948 3 9 104 12 460 12 l455 0 -5 -22z m-1640 -1400 c-3 -13 -234 -1341
-515 -2953 -280 -1612 -512 -2940 -515 -2952 l-5 -23 -456 0 -456 0 6 27 c3
16 236 1349 516 2963 281 1614 513 2941 515 2948 3 9 104 12 460 12 l455 0 -5
-22z"/>
</g>
</svg>
