<svg height="956pt" preserveAspectRatio="xMidYMid meet" viewBox="0 0 956 956" width="956pt" xmlns="http://www.w3.org/2000/svg"><path d="m0 4780v-4780h4780 4780v4780 4780h-4780-4780zm6445 3618c-3-13-234-1341-515-2953-280-1612-512-2940-515-2952l-5-23h-456-456l6 27c3 16 236 1349 516 2963 281 1614 513 2941 515 2948 3 9 104 12 460 12h455zm-1640-1400c-3-13-234-1341-515-2953-280-1612-512-2940-515-2952l-5-23h-456-456l6 27c3 16 236 1349 516 2963 281 1614 513 2941 515 2948 3 9 104 12 460 12h455z" transform="matrix(.1 0 0 -.1 0 956)"/></svg>